<?xml version="1.0" encoding="UTF-8"?>
<svg id="uuid-9cef36f2-477c-432c-b8c6-0904c4b600f4" data-name="Layer 1" xmlns="http://www.w3.org/2000/svg" viewBox="0 0 62.54 72.78">
  <circle cx="31.27" cy="41.51" r="26.4" fill="#fff"/>
  <path d="M31.27,17.47c-.08,0-.16,0-.23,0-13.14,.13-23.75,10.81-23.75,23.98,0,.1,0,.21,0,.31,.17,13.05,10.75,23.58,23.81,23.67,.06,0,.11,0,.17,0,13.16,0,23.85-10.6,23.98-23.73,0-.08,0-.17,0-.25,0-13.25-10.74-23.99-23.99-23.99Z" fill="#7856a3"/>
  <g>
    <polygon points="31.47 17.52 31.32 17.52 31.32 17.52 31.22 17.52 31.22 17.52 31.07 17.52 31.07 21.79 31.47 21.79 31.47 17.52"/>
    <polygon points="31.07 65.5 31.22 65.5 31.22 65.5 31.32 65.5 31.32 65.5 31.47 65.5 31.47 61.23 31.07 61.23 31.07 65.5"/>
    <polygon points="21.24 24.53 21.58 24.33 19.45 20.63 19.32 20.71 19.32 20.71 19.23 20.76 19.23 20.76 19.1 20.83 21.24 24.53"/>
    <polygon points="41.3 58.49 40.95 58.69 43.09 62.39 43.22 62.31 43.22 62.31 43.31 62.26 43.31 62.26 43.43 62.19 41.3 58.49"/>
    <polygon points="14.09 31.82 14.29 31.48 10.6 29.34 10.52 29.47 10.52 29.47 10.47 29.56 10.47 29.56 10.4 29.69 14.09 31.82"/>
    <polygon points="48.44 51.2 48.24 51.54 51.94 53.68 52.02 53.55 52.02 53.55 52.07 53.46 52.07 53.46 52.14 53.33 48.44 51.2"/>
    <polygon points="11.55 41.71 11.55 41.31 7.28 41.31 7.28 41.46 7.28 41.46 7.28 41.56 7.28 41.56 7.28 41.71 11.55 41.71"/>
    <polygon points="50.99 41.31 50.99 41.71 55.25 41.71 55.25 41.56 55.25 41.56 55.25 41.46 55.25 41.46 55.25 41.31 50.99 41.31"/>
    <polygon points="10.4 53.33 10.47 53.46 10.47 53.46 10.52 53.55 10.52 53.55 10.6 53.68 14.29 51.54 14.09 51.2 10.4 53.33"/>
    <polygon points="48.24 31.48 48.44 31.82 52.14 29.69 52.07 29.56 52.07 29.56 52.02 29.47 52.02 29.47 51.94 29.34 48.24 31.48"/>
    <polygon points="19.1 62.19 19.23 62.26 19.23 62.26 19.32 62.31 19.32 62.31 19.45 62.39 21.58 58.69 21.24 58.49 19.1 62.19"/>
    <polygon points="43.43 20.83 43.3 20.76 43.3 20.76 43.22 20.71 43.22 20.71 43.09 20.63 40.95 24.33 41.3 24.53 43.43 20.83"/>
  </g>
  <path d="M51.37,17.56l.78-1.07c.31,.12,.63,.18,.96,.18,.14,0,.27-.01,.41-.03,.71-.11,1.33-.49,1.75-1.06,.42-.58,.6-1.28,.49-1.99-.11-.71-.49-1.33-1.06-1.75l-2.46-1.8c-1.19-.87-2.87-.62-3.75,.58-.77,1.05-.66,2.49,.2,3.41l-.76,1.04c-3.67-2.32-7.86-3.89-12.35-4.51v-3.75h1.52c.89,0,1.61-.72,1.61-1.61V1.61c0-.89-.72-1.61-1.61-1.61h-11.67c-.89,0-1.61,.72-1.61,1.61v3.56c0,.89,.72,1.61,1.61,1.61h1.52v3.75C11.72,12.64,0,25.71,0,41.51c0,17.27,14,31.27,31.27,31.27s31.27-14,31.27-31.27c0-9.62-4.34-18.22-11.17-23.95Zm-20.1,50.36c-14.58,0-26.4-11.82-26.4-26.4S16.69,15.11,31.27,15.11s26.4,11.82,26.4,26.4-11.82,26.4-26.4,26.4Z"/>
  <circle cx="31.27" cy="41.51" r="26.4" fill="#fff"/>
  <g>
    <polygon points="31.47 17.52 31.32 17.52 31.32 17.52 31.22 17.52 31.22 17.52 31.07 17.52 31.07 21.79 31.47 21.79 31.47 17.52"/>
    <polygon points="31.07 65.5 31.22 65.5 31.22 65.5 31.32 65.5 31.32 65.5 31.47 65.5 31.47 61.23 31.07 61.23 31.07 65.5"/>
    <polygon points="21.24 24.53 21.58 24.33 19.45 20.63 19.32 20.71 19.32 20.71 19.23 20.76 19.23 20.76 19.1 20.83 21.24 24.53"/>
    <polygon points="41.3 58.49 40.95 58.69 43.09 62.39 43.22 62.31 43.22 62.31 43.31 62.26 43.31 62.26 43.43 62.19 41.3 58.49"/>
    <polygon points="14.09 31.82 14.29 31.48 10.6 29.34 10.52 29.47 10.52 29.47 10.47 29.56 10.47 29.56 10.4 29.69 14.09 31.82"/>
    <polygon points="48.44 51.2 48.24 51.54 51.94 53.68 52.02 53.55 52.02 53.55 52.07 53.46 52.07 53.46 52.14 53.33 48.44 51.2"/>
    <polygon points="11.55 41.71 11.55 41.31 7.28 41.31 7.28 41.46 7.28 41.46 7.28 41.56 7.28 41.56 7.28 41.71 11.55 41.71"/>
    <polygon points="50.99 41.31 50.99 41.71 55.25 41.71 55.25 41.56 55.25 41.56 55.25 41.46 55.25 41.46 55.25 41.31 50.99 41.31"/>
    <polygon points="10.4 53.33 10.47 53.46 10.47 53.46 10.52 53.55 10.52 53.55 10.6 53.68 14.29 51.54 14.09 51.2 10.4 53.33"/>
    <polygon points="48.24 31.48 48.44 31.82 52.14 29.69 52.07 29.56 52.07 29.56 52.02 29.47 52.02 29.47 51.94 29.34 48.24 31.48"/>
    <polygon points="19.1 62.19 19.23 62.26 19.23 62.26 19.32 62.31 19.32 62.31 19.45 62.39 21.58 58.69 21.24 58.49 19.1 62.19"/>
    <polygon points="43.43 20.83 43.3 20.76 43.3 20.76 43.22 20.71 43.22 20.71 43.09 20.63 40.95 24.33 41.3 24.53 43.43 20.83"/>
  </g>
  <path d="M51.37,17.56l.78-1.07c.31,.12,.63,.18,.96,.18,.14,0,.27-.01,.41-.03,.71-.11,1.33-.49,1.75-1.06,.42-.58,.6-1.28,.49-1.99-.11-.71-.49-1.33-1.06-1.75l-2.46-1.8c-1.19-.87-2.87-.62-3.75,.58-.77,1.05-.66,2.49,.2,3.41l-.76,1.04c-3.67-2.32-7.86-3.89-12.35-4.51v-3.75h1.52c.89,0,1.61-.72,1.61-1.61V1.61c0-.89-.72-1.61-1.61-1.61h-11.67c-.89,0-1.61,.72-1.61,1.61v3.56c0,.89,.72,1.61,1.61,1.61h1.52v3.75C11.72,12.64,0,25.71,0,41.51c0,17.27,14,31.27,31.27,31.27s31.27-14,31.27-31.27c0-9.62-4.34-18.22-11.17-23.95Zm-20.1,50.36c-14.58,0-26.4-11.82-26.4-26.4S16.69,15.11,31.27,15.11s26.4,11.82,26.4,26.4-11.82,26.4-26.4,26.4Z"/>
</svg>